<?xml version="1.0"?>
<!-- Generated by SVGo (float) -->
<svg width="190.00" height="150.00"
     xmlns="http://www.w3.org/2000/svg"
     xmlns:xlink="http://www.w3.org/1999/xlink">
<defs>
<marker id="datapoint" refX="1.00" refY="1.00" markerWidth="2.00" markerHeight="2.00" >
<circle cx="1.00" cy="1.00" r="1.00" style="fill:black" />
</marker>
</defs>
<rect x="0.00" y="0.00" width="190.00" height="150.00" style="fill:white" />
<line x1="58.12" y1="10.00" x2="58.12" y2="110.00" style="stroke:silver;stroke-width:0.5;stroke-dasharray:2,3" />
<text x="58.12" y="112.00" style="font-size: 5; text-anchor:middle; alignment-baseline:before-edge" >2010</text>
<line x1="151.88" y1="10.00" x2="151.88" y2="110.00" style="stroke:silver;stroke-width:0.5;stroke-dasharray:2,3" />
<text x="151.88" y="112.00" style="font-size: 5; text-anchor:middle; alignment-baseline:before-edge" >2020</text>
<line x1="30.00" y1="110.00" x2="180.00" y2="110.00" style="stroke:silver;stroke-width:0.5;stroke-dasharray:2,3" />
<text x="28.00" y="110.00" style="font-size: 5; text-anchor:end; alignment-baseline:middle" >10</text>
<line x1="30.00" y1="96.84" x2="180.00" y2="96.84" style="stroke:silver;stroke-width:0.5;stroke-dasharray:2,3" />
<text x="28.00" y="96.84" style="font-size: 5; text-anchor:end; alignment-baseline:middle" >11</text>
<line x1="30.00" y1="83.68" x2="180.00" y2="83.68" style="stroke:silver;stroke-width:0.5;stroke-dasharray:2,3" />
<text x="28.00" y="83.68" style="font-size: 5; text-anchor:end; alignment-baseline:middle" >12</text>
<line x1="30.00" y1="70.53" x2="180.00" y2="70.53" style="stroke:silver;stroke-width:0.5;stroke-dasharray:2,3" />
<text x="28.00" y="70.53" style="font-size: 5; text-anchor:end; alignment-baseline:middle" >13</text>
<line x1="30.00" y1="57.37" x2="180.00" y2="57.37" style="stroke:silver;stroke-width:0.5;stroke-dasharray:2,3" />
<text x="28.00" y="57.37" style="font-size: 5; text-anchor:end; alignment-baseline:middle" >14</text>
<line x1="30.00" y1="44.21" x2="180.00" y2="44.21" style="stroke:silver;stroke-width:0.5;stroke-dasharray:2,3" />
<text x="28.00" y="44.21" style="font-size: 5; text-anchor:end; alignment-baseline:middle" >15</text>
<line x1="30.00" y1="31.05" x2="180.00" y2="31.05" style="stroke:silver;stroke-width:0.5;stroke-dasharray:2,3" />
<text x="28.00" y="31.05" style="font-size: 5; text-anchor:end; alignment-baseline:middle" >16</text>
<line x1="30.00" y1="17.89" x2="180.00" y2="17.89" style="stroke:silver;stroke-width:0.5;stroke-dasharray:2,3" />
<text x="28.00" y="17.89" style="font-size: 5; text-anchor:end; alignment-baseline:middle" >17</text>
<line x1="30.00" y1="10.00" x2="30.00" y2="110.00" style="stroke:black; stroke-width:0.5" />
<line x1="30.00" y1="110.00" x2="180.00" y2="110.00" style="stroke:black; stroke-width:0.5" />
<polygon points="30.00,7.00 29.00,10.00 31.00,10.00" style="fill:black" />
<polygon points="183.00,110.00 180.00,111.00 180.00,109.00" style="fill:black" />
<polyline points="30.00,74.47 39.38,65.26 48.75,73.16 58.12,73.16 67.50,62.63 76.88,61.32 86.25,52.11 95.62,65.26 105.00,41.58 114.38,53.42 123.75,70.53 133.12,38.95 142.50,75.79 151.88,83.68 161.25,86.32 170.62,110.00 180.00,92.89" style="stroke:red;stroke-width:1;fill:none; marker-start:url(#datapoint); marker-end:url(#datapoint); marker-mid:url(#datapoint)" />
<polyline points="30.00,38.95 39.38,36.32 48.75,42.89 58.12,38.95 67.50,28.42 76.88,32.37 86.25,21.84 95.62,35.00 105.00,12.63 114.38,24.47 123.75,40.26 133.12,10.00 142.50,52.11 151.88,50.79 161.25,54.74 170.62,65.26 180.00,58.68" style="stroke:lime;stroke-width:1;fill:none; marker-start:url(#datapoint); marker-end:url(#datapoint); marker-mid:url(#datapoint)" />
<line x1="30.00" y1="125.00" x2="60.00" y2="125.00" style="stroke:red;stroke-width:1;" />
<text x="65.00" y="125.00" style="font-size: 5; text-anchor:start;alignment-baseline:middle" >LowerCIB</text>
<line x1="30.00" y1="135.00" x2="60.00" y2="135.00" style="stroke:lime;stroke-width:1;" />
<text x="65.00" y="135.00" style="font-size: 5; text-anchor:start;alignment-baseline:middle" >UpperCIB</text>
</svg>
