<?xml version="1.0"?>
<!-- Generated by SVGo (float) -->
<svg width="190.00" height="140.00"
     xmlns="http://www.w3.org/2000/svg"
     xmlns:xlink="http://www.w3.org/1999/xlink">
<defs>
<marker id="datapoint" refX="1.00" refY="1.00" markerWidth="2.00" markerHeight="2.00" >
<circle cx="1.00" cy="1.00" r="1.00" style="fill:black" />
</marker>
</defs>
<rect x="0.00" y="0.00" width="190.00" height="140.00" style="fill:white" />
<line x1="30.00" y1="10.00" x2="30.00" y2="110.00" style="stroke:silver;stroke-width:0.5;stroke-dasharray:2,3" />
<text x="30.00" y="112.00" style="font-size: 5; text-anchor:middle; alignment-baseline:before-edge" >0</text>
<line x1="57.78" y1="10.00" x2="57.78" y2="110.00" style="stroke:silver;stroke-width:0.5;stroke-dasharray:2,3" />
<text x="57.78" y="112.00" style="font-size: 5; text-anchor:middle; alignment-baseline:before-edge" >1</text>
<line x1="85.56" y1="10.00" x2="85.56" y2="110.00" style="stroke:silver;stroke-width:0.5;stroke-dasharray:2,3" />
<text x="85.56" y="112.00" style="font-size: 5; text-anchor:middle; alignment-baseline:before-edge" >2</text>
<line x1="113.33" y1="10.00" x2="113.33" y2="110.00" style="stroke:silver;stroke-width:0.5;stroke-dasharray:2,3" />
<text x="113.33" y="112.00" style="font-size: 5; text-anchor:middle; alignment-baseline:before-edge" >3</text>
<line x1="141.11" y1="10.00" x2="141.11" y2="110.00" style="stroke:silver;stroke-width:0.5;stroke-dasharray:2,3" />
<text x="141.11" y="112.00" style="font-size: 5; text-anchor:middle; alignment-baseline:before-edge" >4</text>
<line x1="168.89" y1="10.00" x2="168.89" y2="110.00" style="stroke:silver;stroke-width:0.5;stroke-dasharray:2,3" />
<text x="168.89" y="112.00" style="font-size: 5; text-anchor:middle; alignment-baseline:before-edge" >5</text>
<line x1="30.00" y1="110.00" x2="180.00" y2="110.00" style="stroke:silver;stroke-width:0.5;stroke-dasharray:2,3" />
<text x="28.00" y="110.00" style="font-size: 5; text-anchor:end; alignment-baseline:middle" >0</text>
<line x1="30.00" y1="94.62" x2="180.00" y2="94.62" style="stroke:silver;stroke-width:0.5;stroke-dasharray:2,3" />
<text x="28.00" y="94.62" style="font-size: 5; text-anchor:end; alignment-baseline:middle" >1</text>
<line x1="30.00" y1="79.23" x2="180.00" y2="79.23" style="stroke:silver;stroke-width:0.5;stroke-dasharray:2,3" />
<text x="28.00" y="79.23" style="font-size: 5; text-anchor:end; alignment-baseline:middle" >2</text>
<line x1="30.00" y1="63.85" x2="180.00" y2="63.85" style="stroke:silver;stroke-width:0.5;stroke-dasharray:2,3" />
<text x="28.00" y="63.85" style="font-size: 5; text-anchor:end; alignment-baseline:middle" >3</text>
<line x1="30.00" y1="48.46" x2="180.00" y2="48.46" style="stroke:silver;stroke-width:0.5;stroke-dasharray:2,3" />
<text x="28.00" y="48.46" style="font-size: 5; text-anchor:end; alignment-baseline:middle" >4</text>
<line x1="30.00" y1="33.08" x2="180.00" y2="33.08" style="stroke:silver;stroke-width:0.5;stroke-dasharray:2,3" />
<text x="28.00" y="33.08" style="font-size: 5; text-anchor:end; alignment-baseline:middle" >5</text>
<line x1="30.00" y1="17.69" x2="180.00" y2="17.69" style="stroke:silver;stroke-width:0.5;stroke-dasharray:2,3" />
<text x="28.00" y="17.69" style="font-size: 5; text-anchor:end; alignment-baseline:middle" >6</text>
<line x1="30.00" y1="10.00" x2="30.00" y2="110.00" style="stroke:black; stroke-width:0.5" />
<line x1="30.00" y1="110.00" x2="180.00" y2="110.00" style="stroke:black; stroke-width:0.5" />
<polygon points="30.00,7.00 29.00,10.00 31.00,10.00" style="fill:black" />
<polygon points="183.00,110.00 180.00,111.00 180.00,109.00" style="fill:black" />
<polyline points="30.00,110.00 43.89,94.62 58.33,76.15 88.33,63.23 149.44,25.38 180.00,10.00" style="stroke:red;stroke-width:1;fill:none; marker-start:url(#datapoint); marker-end:url(#datapoint); marker-mid:url(#datapoint)" />
<line x1="30.00" y1="125.00" x2="60.00" y2="125.00" style="stroke:red;stroke-width:1;" />
<text x="65.00" y="125.00" style="font-size: 5; text-anchor:start;alignment-baseline:middle" >Y</text>
</svg>
